<?xml version="1.0" encoding="UTF-8" standalone="no"?>
<!-- Created with Inkscape (http://www.inkscape.org/) -->

<svg
   width="50cm"
   height="21cm"
   viewBox="0 0 500 210"
   version="1.1"
   id="svg1"
   inkscape:version="1.3.2 (091e20e, 2023-11-25, custom)"
   sodipodi:docname="LOGO.svg"
   xmlns:inkscape="http://www.inkscape.org/namespaces/inkscape"
   xmlns:sodipodi="http://sodipodi.sourceforge.net/DTD/sodipodi-0.dtd"
   xmlns="http://www.w3.org/2000/svg"
   xmlns:svg="http://www.w3.org/2000/svg">
  <sodipodi:namedview
     id="namedview1"
     pagecolor="#ffffff"
     bordercolor="#eeeeee"
     borderopacity="1"
     inkscape:showpageshadow="0"
     inkscape:pageopacity="0"
     inkscape:pagecheckerboard="0"
     inkscape:deskcolor="#505050"
     inkscape:document-units="mm"
     showguides="true"
     inkscape:zoom="0.081733181"
     inkscape:cx="1407.0173"
     inkscape:cy="1608.8937"
     inkscape:window-width="1366"
     inkscape:window-height="715"
     inkscape:window-x="-8"
     inkscape:window-y="-8"
     inkscape:window-maximized="1"
     inkscape:current-layer="layer13"
     showgrid="false">
    <inkscape:page
       x="0"
       y="0"
       width="500"
       height="210"
       id="page5"
       margin="0"
       bleed="0" />
    <inkscape:grid
       id="grid14"
       units="mm"
       originx="2.0462036"
       originy="-223.17918"
       spacingx="0.99999999"
       spacingy="0.99999998"
       empcolor="#0099e5"
       empopacity="0.30196078"
       color="#0099e5"
       opacity="0.14901961"
       empspacing="5"
       dotted="false"
       gridanglex="30"
       gridanglez="30"
       visible="false" />
  </sodipodi:namedview>
  <defs
     id="defs1" />
  <g
     inkscape:groupmode="layer"
     id="layer8"
     inkscape:label="Logo Branca Hori"
     inkscape:highlight-color="#ffffff"
     transform="translate(2.0462075,-223.17919)">
    <g
       id="g6-5-5"
       transform="translate(11.252369,241.37388)"
       style="fill:#ffffff;fill-opacity:1">
      <rect
         style="fill:#ffffff;fill-opacity:1;stroke-width:0.1946"
         id="rect1-7-7-3"
         width="13"
         height="65"
         x="117"
         y="-85"
         inkscape:label="rect1"
         transform="rotate(90)" />
      <rect
         style="fill:#ffffff;fill-opacity:1;stroke-width:0.241371"
         id="rect1-1-7"
         width="13"
         height="100"
         x="20"
         y="30"
         inkscape:label="rect1" />
      <rect
         style="fill:#ffffff;fill-opacity:1;stroke-width:0.209034"
         id="rect1-9-7-7"
         width="13"
         height="75"
         x="50"
         y="30"
         inkscape:label="rect1" />
      <rect
         style="fill:#ffffff;fill-opacity:1;stroke-width:0.179005"
         id="rect1-9-6-2-2"
         width="13"
         height="55"
         x="30"
         y="-105"
         inkscape:label="rect1"
         transform="rotate(90)" />
      <rect
         style="fill:#ffffff;fill-opacity:1;stroke-width:0.170674"
         id="rect1-9-6-1-1-4"
         width="13"
         height="50"
         x="60"
         y="-100"
         inkscape:label="rect1"
         transform="rotate(90)" />
      <path
         style="font-weight:600;font-size:60.2392px;font-family:Montserrat;-inkscape-font-specification:'Montserrat Semi-Bold';fill:#ffffff;fill-opacity:1;stroke-width:1.61354"
         d="M 100.09991,129.8761 H 107.931 V 87.708658 h -7.83109 z M 149.01415,87.708658 V 116.26204 L 125.76182,87.708658 h -6.44559 V 129.8761 h 7.77086 v -28.55338 l 23.25233,28.55338 h 6.44559 V 87.708658 Z m 32.16771,42.769832 c 11.56592,0 17.04769,-5.78296 17.04769,-12.52975 0,-15.48148 -24.99927,-9.63828 -24.99927,-18.613916 0,-3.192678 2.65053,-5.722724 9.15636,-5.722724 3.67459,0 7.8311,1.084305 11.62617,3.313156 l 2.4698,-6.084159 c -3.67459,-2.409568 -8.97564,-3.734831 -14.03573,-3.734831 -11.56593,0 -16.98746,5.782963 -16.98746,12.589993 0,15.662191 25.05951,9.698511 25.05951,18.794631 0,3.13244 -2.771,5.48177 -9.33707,5.48177 -5.18058,0 -10.54186,-1.92766 -13.91526,-4.63842 l -2.71076,6.08416 c 3.49387,3.01196 10.05994,5.06009 16.62602,5.06009 z M 223.34928,87.708658 H 206.00039 V 129.8761 h 7.8311 v -12.16832 h 9.51779 c 11.08401,0 17.95128,-5.72272 17.95128,-14.99956 0,-9.337077 -6.86727,-14.999562 -17.95128,-14.999562 z m -0.36143,23.372812 h -9.15636 v -16.7465 h 9.15636 c 6.86726,0 10.42138,3.0722 10.42138,8.37325 0,5.30105 -3.55412,8.37325 -10.42138,8.37325 z m 33.97488,12.22856 v -11.62617 h 20.36085 v -6.44559 H 256.96273 V 94.274731 h 22.95113 V 87.708658 H 249.13163 V 129.8761 h 31.62558 v -6.56607 z m 52.28761,0.30119 c -8.73468,0 -15.0598,-6.1444 -15.0598,-14.81884 0,-8.67445 6.32512,-14.818845 15.0598,-14.818845 4.39746,0 8.19253,1.626458 11.26473,4.939615 l 5.0601,-4.758897 c -3.91555,-4.57818 -9.81899,-7.047987 -16.68626,-7.047987 -12.95143,0 -22.5897,9.09612 -22.5897,21.686114 0,11.44545 8.01181,20.05965 19.15606,21.50539 l -1.3855,5.30105 h 1.86742 c 2.28909,0 3.19267,0.84335 3.19267,1.9879 0,1.32526 -0.96382,2.16861 -3.19267,2.16861 -1.50598,0 -2.83125,-0.3012 -4.09627,-0.96383 l -1.3855,3.55411 c 1.50598,0.84335 3.37339,1.26503 5.54201,1.26503 4.93961,0 8.19253,-2.22885 8.19253,-5.72273 0,-2.59028 -1.6867,-4.63842 -5.24081,-5.06009 l 0.60239,-2.34933 c 6.62631,-0.18072 12.22856,-2.65052 16.02363,-7.04799 l -5.0601,-4.81913 c -3.0722,3.37339 -6.86727,4.99985 -11.26473,4.99985 z m 46.98657,-39.336196 c 3.85531,0 6.38536,-3.192678 6.50584,-7.891335 h -4.03603 c -0.12048,2.168611 -1.26502,3.433634 -2.95172,3.433634 -2.16861,0 -4.21675,-3.975787 -8.19253,-3.975787 -3.85531,0 -6.38536,3.132438 -6.50584,8.072053 h 4.03603 c 0.12048,-2.28909 1.26502,-3.614352 2.95172,-3.614352 2.16861,0 4.21674,3.975787 8.19253,3.975787 z m -4.33722,46.203466 c 13.07191,0 22.71018,-9.15636 22.71018,-21.68611 0,-12.529755 -9.63827,-21.686114 -22.71018,-21.686114 -13.07191,0 -22.71018,9.216598 -22.71018,21.686114 0,12.46951 9.63827,21.68611 22.71018,21.68611 z m 0,-6.86727 c -8.49373,0 -14.81884,-6.20464 -14.81884,-14.81884 0,-8.61421 6.32511,-14.818845 14.81884,-14.818845 8.49373,0 14.81884,6.204635 14.81884,14.818845 0,8.6142 -6.32511,14.81884 -14.81884,14.81884 z m 38.85434,-0.30119 v -11.62617 h 20.36085 v -6.44559 H 390.75403 V 94.274731 h 22.95114 V 87.708658 H 382.92294 V 129.8761 h 31.62558 v -6.56607 z m 45.60107,7.16846 c 11.56593,0 17.0477,-5.78296 17.0477,-12.52975 0,-15.48148 -24.99927,-9.63828 -24.99927,-18.613916 0,-3.192678 2.65052,-5.722724 9.15636,-5.722724 3.67459,0 7.83109,1.084305 11.62616,3.313156 l 2.46981,-6.084159 c -3.67459,-2.409568 -8.97564,-3.734831 -14.03573,-3.734831 -11.56593,0 -16.98746,5.782963 -16.98746,12.589993 0,15.662191 25.05951,9.698511 25.05951,18.794631 0,3.13244 -2.771,5.48177 -9.33708,5.48177 -5.18057,0 -10.54186,-1.92766 -13.91525,-4.63842 l -2.71077,6.08416 c 3.49388,3.01196 10.05995,5.06009 16.62602,5.06009 z"
         id="text1-1-5"
         aria-label="INSPEÇÕES" />
    </g>
  </g>
</svg>
